<svg width="254" height="106" viewBox="0 0 254 106" fill="none" xmlns="http://www.w3.org/2000/svg">
<g clip-path="url(#clip0_584_3550)">
<rect x="44" y="102" width="257" height="105" fill="#F2F4FA"/>
<rect width="25" height="212" transform="translate(25.9355 -115) rotate(25.4007)" fill="#F2F4FA"/>
<rect width="26" height="212" transform="translate(48.5195 -104.276) rotate(25.4007)" fill="#F8F9FB"/>
<rect width="25" height="212" transform="translate(72.0059 -93.124) rotate(25.4007)" fill="#F2F4FA"/>
<rect width="25" height="212" transform="translate(94.5879 -82.4004) rotate(25.4007)" fill="#F8F9FB"/>
<rect width="26" height="212" transform="translate(117.172 -71.6768) rotate(25.4007)" fill="#F2F4FA"/>
<rect width="25" height="212" transform="translate(140.658 -60.5239) rotate(25.4007)" fill="#F8F9FB"/>
<rect width="25" height="212" transform="translate(163.242 -49.8003) rotate(25.4007)" fill="#F2F4FA"/>
<rect width="26" height="212" transform="translate(185.824 -39.0767) rotate(25.4007)" fill="#F8F9FB"/>
<rect width="25" height="212" transform="translate(209.312 -27.9243) rotate(25.4007)" fill="#F2F4FA"/>
<rect width="25" height="212" transform="translate(231.895 -17.2007) rotate(25.4007)" fill="#F8F9FB"/>
<rect width="26" height="212" transform="translate(254.479 -6.47705) rotate(25.4007)" fill="#F2F4FA"/>
<rect width="25" height="212" transform="translate(277.965 4.67578) rotate(25.4007)" fill="#F8F9FB"/>
</g>
<defs>
<clipPath id="clip0_584_3550">
<rect width="254" height="106" rx="4" fill="white"/>
</clipPath>
</defs>
</svg>
